<?xml version="1.0" encoding="UTF-8"?>
<svg xmlns="http://www.w3.org/2000/svg" xmlns:xlink="http://www.w3.org/1999/xlink" width="556pt" height="146.4pt" viewBox="0 0 556 146.4" version="1.1">
<defs>
<clipPath id="clip1">
  <path d="M 0 119 L 370 119 L 370 146.398438 L 0 146.398438 Z M 0 119 "/>
</clipPath>
</defs>
<g id="surface1">
<path style=" stroke:none;fill-rule:evenodd;fill:rgb(89.0625%,0%,8.616638%);fill-opacity:1;" d="M 358.3125 33.429688 L 413.992188 33.429688 L 410.476563 44.386719 C 409.292969 44 407.851563 43.796875 406.121094 43.796875 L 385.851563 43.796875 L 379.011719 65.101563 L 394.535156 65.101563 C 396.621094 65.101563 398.417969 64.953125 399.925781 64.675781 L 396.292969 76.003906 C 395.128906 75.691406 393.746094 75.503906 392.117188 75.46875 L 375.6875 75.46875 L 366.601563 103.769531 C 366.15625 105.289063 366.054688 106.511719 366.261719 107.453125 L 334.550781 107.453125 C 335.433594 106.4375 336.136719 105.214844 336.644531 103.769531 L 358.058594 37.058594 C 358.488281 35.578125 358.5625 34.375 358.3125 33.429688 Z M 358.3125 33.429688 "/>
<path style=" stroke:none;fill-rule:evenodd;fill:rgb(89.0625%,0%,8.616638%);fill-opacity:1;" d="M 434.597656 125.148438 C 434.039063 126.730469 433.992188 127.964844 434.296875 128.835938 L 399.367188 128.835938 C 400.285156 127.964844 401.097656 126.753906 401.664063 125.148438 C 405.617188 113.957031 416.617188 81.386719 420.570313 70.1875 C 421.90625 63.890625 421.835938 57.84375 418.472656 50.765625 C 415.386719 45.039063 411.226563 37.195313 413.507813 26.148438 C 415.785156 13.082031 433.484375 -0.0976563 450.273438 0.351563 L 434.035156 28.230469 C 438.53125 37.175781 447.519531 42.777344 461.167969 42.734375 L 478.40625 15.828125 C 485.117188 24.433594 485.785156 36.863281 480.480469 48.125 C 475.3125 57.636719 466.507813 61.257813 461.351563 63.621094 C 455.753906 67.492188 451.804688 72.953125 449.5625 79.269531 C 446.03125 89.214844 436.835938 118.226563 434.597656 125.148438 Z M 434.597656 125.148438 "/>
<path style=" stroke:none;fill-rule:evenodd;fill:rgb(10.594177%,9.812927%,9.423828%);fill-opacity:1;" d="M 309.894531 32.078125 C 323.019531 32.078125 332.816406 34.578125 339.335938 39.558594 C 347.613281 45.886719 349.453125 56.179688 344.886719 70.414063 C 340.636719 83.648438 333.027344 93.480469 322.019531 99.921875 C 311.847656 105.84375 299.234375 108.804688 284.15625 108.804688 C 273.84375 108.804688 266.078125 107.511719 260.863281 104.898438 C 254.046875 101.53125 249.929688 96.402344 248.507813 89.5 C 247.390625 84.074219 248.085938 77.484375 250.582031 69.710938 C 251.882813 65.65625 253.777344 61.621094 256.257813 57.625 C 258.722656 53.605469 261.421875 50.238281 264.328125 47.535156 C 265 46.90625 265.691406 46.292969 266.398438 45.703125 C 265.679688 45.617188 264.941406 45.574219 264.1875 45.574219 L 248.289063 45.574219 L 229.609375 103.769531 C 229.140625 105.363281 229.058594 106.585938 229.335938 107.453125 L 197.558594 107.453125 C 198.382813 106.621094 199.082031 105.398438 199.652344 103.769531 L 218.332031 45.574219 L 203.785156 45.574219 C 202.265625 45.574219 200.632813 45.707031 198.886719 45.96875 L 187.664063 80.929688 C 185.375 88.054688 181.234375 93.90625 175.261719 98.496094 C 166.316406 105.363281 154.1875 108.804688 138.890625 108.804688 C 126.804688 108.804688 118.175781 106.398438 112.957031 101.585938 C 111.554688 100.324219 110.453125 98.925781 109.636719 97.402344 L 110.316406 103.769531 C 110.539063 105.363281 111.078125 106.585938 111.929688 107.453125 L 77.757813 107.453125 C 77.984375 107.027344 78.121094 106.734375 78.171875 106.585938 C 78.402344 105.863281 78.484375 104.917969 78.429688 103.769531 L 77.402344 88.742188 L 52.386719 88.742188 L 41.332031 103.769531 C 40.417969 105.03125 39.847656 105.972656 39.652344 106.585938 C 39.605469 106.734375 39.578125 107.027344 39.574219 107.453125 L 23.519531 107.453125 C 24.796875 106.585938 26.03125 105.363281 27.230469 103.769531 L 76.5 37.113281 C 77.46875 35.816406 78.066406 34.855469 78.261719 34.246094 C 78.3125 34.097656 78.355469 33.820313 78.390625 33.429688 L 103.535156 33.429688 C 103.386719 33.761719 103.296875 33.96875 103.261719 34.078125 C 103.078125 34.652344 103.0625 35.671875 103.199219 37.113281 L 108.371094 85.546875 C 108.691406 83.714844 109.191406 81.742188 109.867188 79.632813 L 123.515625 37.113281 C 123.972656 35.558594 124.054688 34.335938 123.789063 33.429688 L 155.566406 33.429688 C 154.695313 34.410156 153.996094 35.632813 153.472656 37.113281 L 139.234375 81.484375 C 137.609375 86.539063 137.761719 90.277344 139.710938 92.703125 C 141.863281 95.460938 145.660156 96.828125 151.113281 96.828125 C 155.351563 96.828125 159.507813 95.832031 163.558594 93.847656 C 166.292969 92.515625 168.519531 90.757813 170.25 88.609375 C 171.984375 86.464844 173.382813 83.6875 174.476563 80.28125 L 188.332031 37.113281 C 188.824219 35.449219 188.90625 34.226563 188.605469 33.429688 L 272.898438 33.429688 L 269.796875 43.09375 C 280.082031 35.871094 293.441406 32.203125 309.894531 32.078125 Z M 60.722656 77.558594 L 76.578125 77.558594 L 75.714844 56.144531 Z M 306.546875 42.5 C 301.046875 42.5 296.304688 44.703125 292.296875 49.109375 C 288.304688 53.53125 284.789063 60.472656 281.753906 69.933594 C 278.710938 79.410156 277.660156 86.480469 278.570313 91.183594 C 279.476563 95.960938 282.832031 98.347656 288.6875 98.347656 C 294.1875 98.347656 298.929688 96.144531 302.9375 91.738281 C 306.929688 87.316406 310.445313 80.375 313.5 70.859375 C 316.589844 61.234375 317.640625 54.160156 316.683594 49.609375 C 315.683594 44.980469 312.320313 42.609375 306.546875 42.5 Z M 306.546875 42.5 "/>
<g clip-path="url(#clip1)" clip-rule="nonzero">
<path style=" stroke:none;fill-rule:evenodd;fill:rgb(77.34375%,78.125%,78.514099%);fill-opacity:1;" d="M 6.355469 127.675781 L 2.382813 141.167969 L 0.0507813 141.167969 L 4.601563 125.703125 L 14.996094 125.703125 L 10.445313 141.167969 L 8.109375 141.167969 L 12.082031 127.675781 Z M 20.980469 133.460938 L 21.039063 133.253906 C 21.609375 131.328125 22.3125 129.742188 23.152344 128.5 C 23.882813 127.46875 24.769531 126.675781 25.820313 126.128906 C 26.871094 125.582031 28.027344 125.308594 29.28125 125.308594 C 30.585938 125.308594 31.582031 125.601563 32.257813 126.1875 C 32.9375 126.777344 33.304688 127.683594 33.359375 128.898438 C 33.417969 130.117188 33.171875 131.65625 32.621094 133.519531 C 32.214844 134.898438 31.746094 136.09375 31.210938 137.109375 C 30.679688 138.117188 30.078125 138.953125 29.414063 139.605469 C 28.742188 140.257813 27.996094 140.746094 27.160156 141.070313 C 26.332031 141.390625 25.414063 141.550781 24.410156 141.550781 C 22.777344 141.550781 21.628906 141.121094 20.960938 140.253906 C 20.472656 139.617188 20.226563 138.761719 20.226563 137.6875 C 20.230469 136.613281 20.480469 135.203125 20.980469 133.460938 Z M 23.457031 133.460938 L 23.402344 133.644531 C 22.96875 135.121094 22.734375 136.300781 22.699219 137.191406 C 22.65625 138.082031 22.824219 138.726563 23.199219 139.136719 C 23.570313 139.542969 24.152344 139.75 24.945313 139.75 C 26.226563 139.75 27.3125 139.152344 28.191406 137.957031 C 28.519531 137.542969 28.746094 137.179688 28.867188 136.859375 C 29.1875 136.179688 29.609375 135.046875 30.132813 133.460938 L 30.316406 132.84375 C 30.855469 131.007813 31.042969 129.636719 30.875 128.738281 C 30.769531 128.230469 30.515625 127.835938 30.109375 127.558594 C 29.707031 127.277344 29.179688 127.136719 28.539063 127.136719 C 27.714844 127.136719 26.972656 127.414063 26.3125 127.96875 C 25.730469 128.453125 25.21875 129.113281 24.78125 129.9375 C 24.347656 130.769531 23.902344 131.941406 23.457031 133.460938 Z M 40.234375 134.140625 L 40.992188 131.574219 L 48.101563 131.574219 L 47.347656 134.140625 Z M 52.300781 144.917969 L 50.792969 144.917969 L 52.53125 139.011719 L 52.828125 139.011719 C 53.332031 139.011719 53.75 138.867188 54.078125 138.574219 C 54.960938 137.714844 55.796875 135.941406 56.589844 133.253906 L 58.8125 125.703125 L 67.578125 125.703125 L 63.660156 139.011719 L 65.105469 139.011719 L 63.367188 144.917969 L 61.890625 144.917969 L 62.4375 141.167969 L 53.933594 141.167969 Z M 64.839844 127.675781 L 60.238281 127.675781 L 58.777344 132.636719 C 58.5625 133.375 58.25 134.234375 57.839844 135.210938 C 57.433594 136.183594 57.078125 136.929688 56.777344 137.449219 C 56.472656 137.929688 56.007813 138.472656 55.382813 139.074219 L 61.484375 139.074219 Z M 73.449219 133.460938 L 73.507813 133.253906 C 74.078125 131.328125 74.777344 129.742188 75.621094 128.5 C 76.347656 127.46875 77.238281 126.675781 78.289063 126.128906 C 79.339844 125.582031 80.492188 125.308594 81.75 125.308594 C 83.050781 125.308594 84.046875 125.601563 84.726563 126.1875 C 85.40625 126.777344 85.773438 127.683594 85.828125 128.898438 C 85.882813 130.117188 85.636719 131.65625 85.089844 133.519531 C 84.683594 134.898438 84.214844 136.09375 83.679688 137.109375 C 83.144531 138.117188 82.546875 138.953125 81.882813 139.605469 C 81.210938 140.257813 80.460938 140.746094 79.628906 141.070313 C 78.800781 141.390625 77.882813 141.550781 76.878906 141.550781 C 75.246094 141.550781 74.097656 141.121094 73.425781 140.253906 C 72.941406 139.617188 72.695313 138.761719 72.695313 137.6875 C 72.699219 136.613281 72.949219 135.203125 73.449219 133.460938 Z M 75.921875 133.460938 L 75.871094 133.644531 C 75.433594 135.121094 75.199219 136.300781 75.164063 137.191406 C 75.125 138.082031 75.292969 138.726563 75.664063 139.136719 C 76.039063 139.542969 76.621094 139.75 77.414063 139.75 C 78.691406 139.75 79.78125 139.152344 80.660156 137.957031 C 80.988281 137.542969 81.210938 137.179688 81.335938 136.859375 C 81.652344 136.179688 82.074219 135.046875 82.601563 133.460938 L 82.785156 132.84375 C 83.324219 131.007813 83.511719 129.636719 83.34375 128.738281 C 83.234375 128.230469 82.980469 127.835938 82.578125 127.558594 C 82.171875 127.277344 81.648438 127.136719 81.007813 127.136719 C 80.179688 127.136719 79.441406 127.414063 78.78125 127.96875 C 78.199219 128.453125 77.6875 129.113281 77.25 129.9375 C 76.8125 130.769531 76.371094 131.941406 75.921875 133.460938 Z M 107.695313 119.113281 L 107.035156 121.355469 C 106.753906 121.652344 106.496094 121.859375 106.261719 121.976563 C 105.890625 122.183594 104.996094 122.558594 103.570313 123.09375 C 102.097656 123.621094 101.324219 123.894531 101.261719 123.925781 C 100.328125 124.3125 99.730469 124.578125 99.460938 124.722656 C 99.183594 124.863281 98.886719 125.070313 98.5625 125.351563 C 98.238281 125.636719 97.964844 125.921875 97.75 126.222656 C 97.433594 126.671875 97.136719 127.199219 96.847656 127.8125 C 96.566406 128.421875 96.140625 129.453125 95.578125 130.894531 C 96.308594 129.863281 96.890625 129.136719 97.316406 128.703125 C 98.441406 127.566406 99.867188 126.996094 101.589844 126.996094 C 102.417969 126.996094 103.113281 127.152344 103.671875 127.464844 C 104.234375 127.777344 104.660156 128.230469 104.933594 128.820313 C 105.210938 129.410156 105.34375 130.136719 105.320313 131 C 105.296875 131.863281 105.128906 132.832031 104.816406 133.898438 C 104.3125 135.609375 103.542969 137.152344 102.507813 138.535156 C 101.039063 140.527344 99.078125 141.523438 96.613281 141.523438 C 94.191406 141.523438 92.820313 140.527344 92.5 138.539063 C 92.304688 137.324219 92.589844 135.429688 93.351563 132.84375 C 94.53125 128.832031 95.738281 126.105469 96.96875 124.664063 C 97.640625 123.886719 98.339844 123.273438 99.074219 122.828125 C 99.804688 122.34375 101.355469 121.695313 103.714844 120.882813 C 105.167969 120.382813 106.070313 120.050781 106.425781 119.894531 C 106.789063 119.738281 107.210938 119.476563 107.695313 119.113281 Z M 95.5 133.964844 C 94.921875 135.933594 94.765625 137.382813 95.035156 138.320313 C 95.304688 139.253906 96.011719 139.722656 97.144531 139.722656 C 98.285156 139.722656 99.273438 139.25 100.097656 138.308594 C 100.925781 137.363281 101.628906 135.917969 102.203125 133.964844 C 103.195313 130.59375 102.589844 128.910156 100.382813 128.910156 C 99.277344 128.910156 98.308594 129.34375 97.472656 130.203125 C 96.644531 131.066406 95.984375 132.320313 95.5 133.964844 Z M 109.300781 146.367188 L 115.386719 125.695313 L 117.628906 125.695313 L 116.96875 127.941406 C 117.652344 126.992188 118.320313 126.332031 118.957031 125.960938 C 119.601563 125.589844 120.398438 125.402344 121.351563 125.402344 C 123.089844 125.402344 124.183594 126.082031 124.625 127.445313 C 125.066406 128.800781 124.875 130.886719 124.050781 133.699219 C 122.523438 138.875 120.109375 141.464844 116.796875 141.464844 C 115.859375 141.464844 115.089844 141.207031 114.484375 140.691406 C 114.152344 140.371094 113.898438 139.890625 113.730469 139.25 L 111.632813 146.367188 Z M 115.378906 133.34375 C 114.738281 135.515625 114.542969 137.097656 114.789063 138.101563 C 115.03125 139.101563 115.742188 139.605469 116.914063 139.605469 C 117.585938 139.605469 118.191406 139.402344 118.738281 139 C 119.28125 138.59375 119.78125 137.96875 120.230469 137.125 C 120.683594 136.277344 121.113281 135.164063 121.519531 133.785156 C 122.203125 131.464844 122.484375 129.800781 122.367188 128.796875 C 122.316406 128.335938 122.109375 127.96875 121.746094 127.699219 C 121.382813 127.429688 120.90625 127.289063 120.324219 127.289063 C 119.566406 127.289063 118.871094 127.527344 118.253906 128 C 117.648438 128.453125 117.128906 129.085938 116.695313 129.890625 C 116.257813 130.695313 115.820313 131.847656 115.378906 133.34375 Z M 141.859375 128.648438 L 133.097656 141.167969 L 130.113281 141.167969 L 134.667969 125.695313 L 137 125.695313 L 133.199219 138.605469 L 142.167969 125.695313 L 145.0625 125.695313 L 140.507813 141.167969 L 138.175781 141.167969 Z M 147.859375 141.167969 L 154.171875 134.171875 C 153.105469 134.066406 152.371094 133.699219 151.980469 133.058594 C 151.582031 132.414063 151.550781 131.539063 151.878906 130.421875 C 152.21875 129.273438 152.851563 128.261719 153.78125 127.375 C 154.449219 126.753906 155.171875 126.320313 155.941406 126.070313 C 156.707031 125.820313 157.730469 125.695313 159 125.695313 L 163.042969 125.695313 L 158.492188 141.167969 L 156.15625 141.167969 L 158.042969 134.761719 L 156.011719 134.761719 L 150.578125 141.167969 Z M 160.121094 127.703125 L 158.230469 127.703125 C 156.257813 127.703125 155.011719 128.589844 154.488281 130.367188 C 153.976563 132.113281 154.648438 132.988281 156.503906 132.988281 L 158.566406 132.988281 Z M 180.199219 125.703125 L 179.617188 127.675781 L 175.902344 127.675781 L 171.929688 141.167969 L 169.597656 141.167969 L 173.570313 127.675781 L 169.820313 127.675781 L 170.398438 125.703125 Z M 201.132813 141.167969 C 200.398438 141.246094 199.953125 141.285156 199.800781 141.285156 C 199.089844 141.285156 198.621094 141.125 198.386719 140.792969 C 198.152344 140.46875 198.097656 139.902344 198.21875 139.101563 C 197.683594 139.738281 197.210938 140.199219 196.808594 140.496094 C 195.832031 141.199219 194.757813 141.550781 193.574219 141.550781 C 192.78125 141.550781 192.144531 141.378906 191.65625 141.035156 C 191.171875 140.6875 190.871094 140.1875 190.757813 139.539063 C 190.644531 138.886719 190.71875 138.113281 190.984375 137.210938 C 191.40625 135.785156 192.1875 134.664063 193.328125 133.847656 C 194.132813 133.273438 195.542969 132.714844 197.546875 132.167969 C 198.816406 131.804688 199.621094 131.507813 199.964844 131.277344 C 200.28125 131.070313 200.589844 130.460938 200.886719 129.445313 C 201.140625 128.585938 201.136719 127.96875 200.871094 127.601563 C 200.609375 127.238281 200.03125 127.054688 199.140625 127.054688 C 198.269531 127.054688 197.582031 127.269531 197.070313 127.703125 C 196.558594 128.136719 196.148438 128.847656 195.84375 129.832031 L 193.660156 129.832031 C 194.109375 128.667969 194.542969 127.832031 194.953125 127.320313 C 195.539063 126.605469 196.226563 126.089844 197.011719 125.765625 C 197.792969 125.445313 198.785156 125.28125 199.988281 125.28125 C 202.960938 125.28125 204.039063 126.671875 203.21875 129.453125 L 200.5625 138.480469 C 200.339844 139.230469 200.546875 139.605469 201.175781 139.605469 C 201.3125 139.605469 201.460938 139.589844 201.609375 139.550781 Z M 199.917969 132.84375 C 199.363281 133.207031 198.933594 133.453125 198.609375 133.589844 C 198.292969 133.726563 197.761719 133.898438 197.003906 134.113281 C 195.859375 134.425781 195.035156 134.800781 194.53125 135.234375 C 194.023438 135.667969 193.636719 136.328125 193.375 137.210938 C 193.152344 137.96875 193.164063 138.574219 193.40625 139.023438 C 193.648438 139.472656 194.09375 139.691406 194.742188 139.691406 C 195.628906 139.691406 196.484375 139.324219 197.3125 138.585938 C 198.140625 137.847656 198.710938 136.945313 199.023438 135.886719 Z M 213.269531 125.703125 L 217.90625 125.703125 C 218.988281 125.703125 219.8125 125.773438 220.363281 125.925781 C 220.921875 126.082031 221.34375 126.347656 221.644531 126.730469 C 221.898438 127.03125 222.046875 127.4375 222.089844 127.960938 C 222.128906 128.480469 222.054688 129.058594 221.871094 129.6875 C 221.617188 130.546875 221.230469 131.222656 220.71875 131.714844 C 220.199219 132.203125 219.457031 132.589844 218.488281 132.875 C 219.078125 132.996094 219.539063 133.191406 219.875 133.460938 C 220.652344 134.144531 220.828125 135.21875 220.398438 136.675781 C 219.945313 138.214844 219.109375 139.386719 217.894531 140.195313 C 217.335938 140.578125 216.773438 140.839844 216.199219 140.972656 C 215.621094 141.105469 214.792969 141.167969 213.707031 141.167969 L 208.71875 141.167969 Z M 211.613281 139.253906 L 214.832031 139.253906 C 215.625 139.253906 216.304688 139.023438 216.882813 138.5625 C 217.460938 138.097656 217.871094 137.464844 218.109375 136.652344 C 218.269531 136.101563 218.308594 135.628906 218.210938 135.230469 C 218.117188 134.832031 217.902344 134.523438 217.566406 134.3125 C 217.234375 134.101563 216.800781 133.992188 216.261719 133.992188 L 213.164063 133.992188 Z M 215.03125 127.644531 L 213.734375 132.050781 L 216.539063 132.050781 C 217.335938 132.050781 217.96875 131.882813 218.4375 131.542969 C 218.902344 131.207031 219.246094 130.675781 219.457031 129.957031 C 219.914063 128.417969 219.3125 127.644531 217.660156 127.644531 Z M 240.492188 125.703125 L 239.910156 127.675781 L 236.195313 127.675781 L 232.222656 141.167969 L 229.890625 141.167969 L 233.863281 127.675781 L 230.113281 127.675781 L 230.691406 125.703125 Z M 245.085938 133.460938 L 245.148438 133.253906 C 245.714844 131.328125 246.417969 129.742188 247.261719 128.5 C 247.988281 127.46875 248.875 126.675781 249.925781 126.128906 C 250.980469 125.582031 252.132813 125.308594 253.386719 125.308594 C 254.691406 125.308594 255.6875 125.601563 256.367188 126.1875 C 257.042969 126.777344 257.414063 127.683594 257.46875 128.898438 C 257.523438 130.117188 257.277344 131.65625 256.726563 133.519531 C 256.324219 134.898438 255.851563 136.09375 255.316406 137.109375 C 254.785156 138.117188 254.183594 138.953125 253.519531 139.605469 C 252.851563 140.257813 252.101563 140.746094 251.269531 141.070313 C 250.441406 141.390625 249.523438 141.550781 248.519531 141.550781 C 246.882813 141.550781 245.738281 141.121094 245.066406 140.253906 C 244.578125 139.617188 244.335938 138.761719 244.335938 137.6875 C 244.335938 136.613281 244.589844 135.203125 245.085938 133.460938 Z M 247.5625 133.460938 L 247.507813 133.644531 C 247.074219 135.121094 246.839844 136.300781 246.804688 137.191406 C 246.765625 138.082031 246.933594 138.726563 247.304688 139.136719 C 247.675781 139.542969 248.261719 139.75 249.054688 139.75 C 250.332031 139.75 251.421875 139.152344 252.296875 137.957031 C 252.625 137.542969 252.851563 137.179688 252.976563 136.859375 C 253.292969 136.179688 253.714844 135.046875 254.242188 133.460938 L 254.421875 132.84375 C 254.964844 131.007813 255.148438 129.636719 254.980469 128.738281 C 254.875 128.230469 254.621094 127.835938 254.21875 127.558594 C 253.8125 127.277344 253.285156 127.136719 252.648438 127.136719 C 251.820313 127.136719 251.078125 127.414063 250.417969 127.96875 C 249.839844 128.453125 249.324219 129.113281 248.890625 129.9375 C 248.453125 130.769531 248.011719 131.941406 247.5625 133.460938 Z M 272.292969 135.734375 L 274.5625 135.734375 C 274.382813 136.261719 274.183594 136.765625 273.964844 137.242188 C 273.484375 138.378906 272.707031 139.371094 271.644531 140.222656 C 270.535156 141.109375 269.199219 141.550781 267.652344 141.550781 C 265.78125 141.550781 264.59375 140.878906 264.085938 139.523438 C 263.578125 138.171875 263.734375 136.101563 264.554688 133.316406 C 265.332031 130.675781 266.386719 128.679688 267.722656 127.324219 C 269.054688 125.96875 270.628906 125.289063 272.441406 125.289063 C 274.070313 125.289063 275.183594 125.746094 275.785156 126.65625 C 276.394531 127.566406 276.453125 128.871094 275.96875 130.570313 L 273.691406 130.570313 C 274.191406 128.363281 273.621094 127.261719 271.972656 127.261719 C 270.785156 127.261719 269.773438 127.824219 268.9375 128.941406 C 268.621094 129.386719 268.394531 129.75 268.261719 130.035156 C 267.875 130.914063 267.464844 132.035156 267.035156 133.402344 L 266.894531 133.875 C 266.308594 135.875 266.132813 137.335938 266.367188 138.265625 C 266.597656 139.195313 267.265625 139.664063 268.355469 139.664063 C 269.214844 139.664063 269.960938 139.347656 270.589844 138.71875 C 271.222656 138.089844 271.789063 137.09375 272.292969 135.734375 Z M 290.328125 135.941406 L 292.601563 135.941406 C 292.375 136.601563 292.195313 137.074219 292.058594 137.363281 C 291.585938 138.457031 290.839844 139.421875 289.828125 140.253906 C 288.734375 141.121094 287.425781 141.550781 285.902344 141.550781 C 283.789063 141.550781 282.582031 140.675781 282.273438 138.929688 C 282.050781 137.683594 282.332031 135.714844 283.125 133.023438 C 284.644531 127.863281 287.175781 125.28125 290.722656 125.28125 C 294.105469 125.28125 295.152344 127.476563 293.859375 131.871094 C 293.65625 132.558594 293.484375 133.109375 293.34375 133.519531 L 285.371094 133.519531 L 285.058594 134.589844 C 284.03125 138.070313 284.535156 139.808594 286.5625 139.808594 C 287.363281 139.808594 288.082031 139.476563 288.726563 138.8125 C 289.371094 138.148438 289.902344 137.191406 290.328125 135.941406 Z M 285.882813 131.777344 L 291.523438 131.777344 L 291.621094 131.453125 C 291.910156 130.46875 292.058594 129.648438 292.0625 129 C 292.066406 128.347656 291.917969 127.867188 291.625 127.550781 C 291.328125 127.242188 290.882813 127.085938 290.28125 127.085938 C 289.492188 127.085938 288.816406 127.300781 288.257813 127.734375 C 287.90625 127.988281 287.535156 128.363281 287.15625 128.855469 C 286.859375 129.277344 286.636719 129.679688 286.472656 130.050781 C 286.308594 130.425781 286.113281 131 285.882813 131.777344 Z M 297.863281 146.367188 L 303.945313 125.695313 L 306.1875 125.695313 L 305.527344 127.941406 C 306.210938 126.992188 306.878906 126.332031 307.519531 125.960938 C 308.160156 125.589844 308.957031 125.402344 309.914063 125.402344 C 311.648438 125.402344 312.746094 126.082031 313.183594 127.445313 C 313.625 128.800781 313.433594 130.886719 312.609375 133.699219 C 311.085938 138.875 308.667969 141.464844 305.355469 141.464844 C 304.417969 141.464844 303.652344 141.207031 303.046875 140.691406 C 302.710938 140.371094 302.460938 139.890625 302.289063 139.25 L 300.195313 146.367188 Z M 303.9375 133.34375 C 303.300781 135.515625 303.105469 137.097656 303.347656 138.101563 C 303.59375 139.101563 304.300781 139.605469 305.472656 139.605469 C 306.144531 139.605469 306.75 139.402344 307.296875 139 C 307.839844 138.59375 308.339844 137.96875 308.789063 137.125 C 309.242188 136.277344 309.671875 135.164063 310.078125 133.785156 C 310.761719 131.464844 311.042969 129.800781 310.925781 128.796875 C 310.875 128.335938 310.667969 127.96875 310.304688 127.699219 C 309.941406 127.429688 309.464844 127.289063 308.882813 127.289063 C 308.125 127.289063 307.429688 127.527344 306.816406 128 C 306.210938 128.453125 305.6875 129.085938 305.253906 129.890625 C 304.816406 130.695313 304.378906 131.847656 303.9375 133.34375 Z M 323.226563 125.703125 L 327.859375 125.703125 C 328.945313 125.703125 329.769531 125.773438 330.320313 125.925781 C 330.875 126.082031 331.296875 126.347656 331.597656 126.730469 C 331.855469 127.03125 332 127.4375 332.042969 127.960938 C 332.082031 128.480469 332.011719 129.058594 331.824219 129.6875 C 331.574219 130.546875 331.1875 131.222656 330.671875 131.714844 C 330.15625 132.203125 329.410156 132.589844 328.441406 132.875 C 329.03125 132.996094 329.496094 133.191406 329.828125 133.460938 C 330.605469 134.144531 330.785156 135.21875 330.355469 136.675781 C 329.902344 138.214844 329.066406 139.386719 327.847656 140.195313 C 327.292969 140.578125 326.726563 140.839844 326.152344 140.972656 C 325.578125 141.105469 324.746094 141.167969 323.664063 141.167969 L 318.671875 141.167969 Z M 321.570313 139.253906 L 324.789063 139.253906 C 325.582031 139.253906 326.257813 139.023438 326.835938 138.5625 C 327.417969 138.097656 327.824219 137.464844 328.0625 136.652344 C 328.226563 136.101563 328.261719 135.628906 328.167969 135.230469 C 328.074219 134.832031 327.859375 134.523438 327.523438 134.3125 C 327.191406 134.101563 326.753906 133.992188 326.21875 133.992188 L 323.117188 133.992188 Z M 324.984375 127.644531 L 323.691406 132.050781 L 326.496094 132.050781 C 327.292969 132.050781 327.921875 131.882813 328.390625 131.542969 C 328.859375 131.207031 329.203125 130.675781 329.414063 129.957031 C 329.867188 128.417969 329.269531 127.644531 327.613281 127.644531 Z M 349.230469 128.648438 L 340.464844 141.167969 L 337.484375 141.167969 L 342.035156 125.695313 L 344.371094 125.695313 L 340.570313 138.605469 L 349.535156 125.695313 L 352.429688 125.695313 L 347.875 141.167969 L 345.542969 141.167969 Z M 357.378906 136.574219 L 359.503906 136.574219 C 359.40625 137.039063 359.339844 137.496094 359.300781 137.957031 C 359.257813 139.191406 359.890625 139.808594 361.207031 139.808594 C 362.089844 139.808594 362.847656 139.542969 363.480469 139.007813 C 364.109375 138.472656 364.570313 137.710938 364.863281 136.714844 C 365.414063 134.84375 364.78125 133.910156 362.972656 133.910156 L 361.527344 133.910156 L 362.035156 132.191406 L 363.570313 132.191406 C 364.277344 132.191406 364.957031 131.917969 365.601563 131.367188 C 366.246094 130.816406 366.683594 130.140625 366.921875 129.328125 C 367.136719 128.605469 367.078125 128.027344 366.75 127.605469 C 366.429688 127.175781 365.882813 126.964844 365.109375 126.964844 C 363.523438 126.964844 362.335938 127.960938 361.542969 129.949219 L 359.417969 129.949219 C 360.007813 128.363281 360.808594 127.191406 361.816406 126.445313 C 362.824219 125.691406 364.117188 125.316406 365.683594 125.316406 C 366.621094 125.316406 367.398438 125.476563 368.003906 125.785156 C 368.613281 126.101563 369.007813 126.550781 369.203125 127.148438 C 369.390625 127.742188 369.367188 128.453125 369.125 129.273438 C 368.828125 130.28125 368.320313 131.101563 367.601563 131.71875 C 367.191406 132.066406 366.777344 132.3125 366.371094 132.46875 C 365.964844 132.628906 365.390625 132.761719 364.640625 132.871094 C 365.941406 133.035156 366.789063 133.394531 367.1875 133.960938 C 367.589844 134.519531 367.621094 135.382813 367.28125 136.53125 C 367.074219 137.242188 366.800781 137.871094 366.460938 138.421875 C 365.8125 139.457031 365.035156 140.210938 364.117188 140.6875 C 363.195313 141.164063 362.058594 141.40625 360.710938 141.40625 C 359.117188 141.40625 358.046875 140.972656 357.496094 140.109375 C 357.285156 139.769531 357.15625 139.40625 357.101563 139.019531 C 357.015625 138.480469 357.105469 137.667969 357.378906 136.574219 Z M 357.378906 136.574219 "/>
</g>
<path style=" stroke:none;fill-rule:evenodd;fill:rgb(89.0625%,0%,8.616638%);fill-opacity:1;" d="M 491.394531 71.65625 L 482.703125 37.167969 C 482.292969 35.613281 481.738281 34.375 481.042969 33.429688 L 515.746094 33.429688 C 515.621094 33.6875 515.550781 33.835938 515.527344 33.910156 C 515.292969 34.632813 515.347656 35.707031 515.675781 37.113281 L 519.699219 53.867188 L 536.386719 37.113281 C 537.925781 35.558594 538.917969 34.335938 539.386719 33.429688 L 556.082031 33.429688 C 554.585938 34.300781 553.039063 35.519531 551.398438 37.113281 L 522.785156 65.324219 L 532.414063 103.714844 C 532.878906 105.511719 533.429688 106.769531 534.074219 107.453125 L 499.328125 107.453125 C 499.617188 106.546875 499.566406 105.324219 499.199219 103.769531 L 494.320313 83.816406 L 474.136719 103.714844 C 472.5625 105.308594 471.589844 106.546875 471.253906 107.453125 L 454.046875 107.453125 C 456.050781 106.324219 457.75 105.105469 459.132813 103.769531 Z M 547.078125 38.476563 C 547.078125 40.839844 545.167969 42.765625 542.839844 42.765625 C 540.507813 42.765625 538.625 40.832031 538.625 38.476563 C 538.625 36.125 540.5 34.144531 542.839844 34.144531 C 545.214844 34.144531 547.078125 36.132813 547.078125 38.476563 Z M 539.332031 38.476563 C 539.332031 40.4375 540.902344 42.058594 542.839844 42.058594 C 544.78125 42.058594 546.359375 40.449219 546.359375 38.476563 C 546.359375 36.519531 544.828125 34.863281 542.839844 34.863281 C 540.875 34.863281 539.332031 36.511719 539.332031 38.476563 Z M 541.316406 36.261719 L 543.308594 36.261719 C 544.078125 36.261719 544.535156 36.78125 544.535156 37.535156 C 544.535156 38.035156 544.359375 38.300781 543.945313 38.558594 C 544.042969 38.585938 544.121094 38.621094 544.183594 38.664063 C 544.691406 39.078125 544.246094 40.320313 544.664063 40.667969 L 544.664063 40.785156 L 543.96875 40.785156 C 543.734375 40.292969 543.941406 39.675781 543.730469 39.148438 C 543.640625 38.953125 543.429688 38.855469 543.097656 38.855469 L 541.917969 38.855469 L 541.917969 40.785156 L 541.316406 40.785156 Z M 541.917969 38.328125 L 543.203125 38.328125 C 543.632813 38.328125 543.921875 37.972656 543.921875 37.558594 C 543.921875 37.21875 543.679688 36.789063 543.296875 36.789063 L 541.917969 36.789063 Z M 541.917969 38.328125 "/>
</g>
</svg>
