<?xml version="1.0" encoding="utf-8"?>
<!-- Generator: Adobe Illustrator 19.0.0, SVG Export Plug-In . SVG Version: 6.00 Build 0)  -->
<svg version="1.1" id="Layer_1" xmlns="http://www.w3.org/2000/svg" xmlns:xlink="http://www.w3.org/1999/xlink" x="0px" y="0px"
	 viewBox="0 0 512 512" style="enable-background:new 0 0 512 512;" xml:space="preserve">
<style type="text/css">
	.st0{fill:#2D4452;}
	.st1{fill:#242424;}
	.st2{fill:#F5F5F5;}
	.st3{fill:#84D3C4;}
	.st4{fill:#406A80;}
	.st5{fill:#395F73;}
	.st6{fill:#CC584C;}
	.st7{fill:#0D0D0D;}
	.st8{fill:#B3B3B3;}
	.st9{fill:#CCCCCC;}
	.st10{fill:#96E6D9;}
	.st11{fill:#FFD464;}
</style>
<g id="XMLID_13_">
	<circle id="XMLID_15_" class="st0" cx="256" cy="256" r="256"/>
	<path id="XMLID_16_" class="st1" d="M11.8,330.8c32.3,104,130,180.4,244.2,180.4c115,0,211.9-75.6,244.2-180.4H11.8z"/>
	<rect id="XMLID_17_" x="54.4" y="378.9" class="st2" width="48" height="15.8"/>
	<rect id="XMLID_18_" x="122.1" y="378.9" class="st2" width="48" height="15.8"/>
	<rect id="XMLID_19_" x="189.8" y="378.9" class="st2" width="48" height="15.8"/>
	<rect id="XMLID_21_" x="258.4" y="378.9" class="st2" width="48" height="15.8"/>
	<rect id="XMLID_23_" x="326.1" y="378.9" class="st2" width="48" height="15.8"/>
	<rect id="XMLID_24_" x="393.8" y="378.9" class="st2" width="48" height="15.8"/>
	<path id="XMLID_25_" class="st3" d="M434.8,236.3l18.9,34.7l55.9,16.5c1.6-10.2,2.4-20.5,2.4-31.5c0-23.6-3.2-47.3-9.5-69.3
		L434.8,236.3z"/>
	<path id="XMLID_26_" class="st4" d="M408.8,226.9h-57.5L308.8,167c-5.5-7.9-14.2-11.8-23.6-11.8H174.1c-9.5,0-18.1,4.7-23.6,11.8
		l-42.5,59.9h-48c-2.4,0-6.3,3.2-6.3,5.5V308c0,2.4,3.9,3.2,6.3,3.2h28.4c2.4-23.6,22.8-44.1,48-44.1s45.7,19.7,48,44.1h144.1
		c2.4-23.6,22.8-44.1,48-44.1c25.2,0,45.7,19.7,48,44.1h28.4c2.4,0,2.4-0.8,2.4-3.2v-11C453.7,240.2,430.1,226.9,408.8,226.9z"/>
	<path id="XMLID_27_" class="st5" d="M119.7,267c-25.2,0-45.7,19.7-48,43.3h15.8c1.6-19.7,18.1-39.4,40.2-43.3
		C125.2,267,122.9,267,119.7,267z"/>
	<path id="XMLID_28_" class="st5" d="M300.9,167l42.5,59.9h7.9L308.8,167c-5.5-7.9-14.2-11.8-23.6-11.8h-7.9
		C286.7,155.2,295.4,159.1,300.9,167z"/>
	<path id="XMLID_29_" class="st5" d="M360,267c-25.2,0-45.7,19.7-48,43.3h15.8c1.6-19.7,18.1-39.4,40.2-43.3
		C365.5,267,362.3,267,360,267z"/>
	<path id="XMLID_30_" class="st5" d="M408.8,226.9h-15.8c21.3,0,45.7,13.4,45.7,70.1v11c0,2.4,0,3.2-2.4,3.2h15.8
		c2.4,0,2.4-0.8,2.4-3.2v-11C453.7,240.2,430.1,226.9,408.8,226.9z"/>
	<path id="XMLID_31_" class="st6" d="M74,246.5v25.2c0,6.3-3.2,11-10.2,11H53.6v-36.2C53.6,246.5,74,246.5,74,246.5z"/>
	<path id="XMLID_32_" class="st7" d="M136.3,356c-22.1,0-40.2-18.1-40.2-40.2c0-22.1,18.1-40.2,40.2-40.2
		c22.1,0,40.2,18.1,40.2,40.2C175.7,337.9,158.3,356,136.3,356z"/>
	<path id="XMLID_33_" class="st1" d="M136.3,352.1c-19.7,0-36.2-16.5-36.2-36.2c0-19.7,16.5-36.2,36.2-36.2s36.2,16.5,36.2,36.2
		C171.7,335.6,156,352.1,136.3,352.1z"/>
	<path id="XMLID_34_" class="st8" d="M136.3,344.2c-15.8,0-28.4-12.6-28.4-28.4s12.6-28.4,28.4-28.4s28.4,12.6,28.4,28.4
		C163.8,331.6,151.2,344.2,136.3,344.2z"/>
	<path id="XMLID_35_" class="st9" d="M136.3,340.3c-13.4,0-23.6-11-23.6-23.6c0-13.4,11-23.6,23.6-23.6c13.4,0,23.6,11,23.6,23.6
		S148.9,340.3,136.3,340.3z"/>
	<circle id="XMLID_36_" class="st8" cx="136.3" cy="315.9" r="7.9"/>
	<path id="XMLID_37_" class="st7" d="M375.7,356c-22.1,0-40.2-18.1-40.2-40.2c0-22.1,18.1-40.2,40.2-40.2
		c22.1,0,40.2,18.1,40.2,40.2C415.9,337.9,397.8,356,375.7,356z"/>
	<path id="XMLID_38_" class="st1" d="M375.7,352.1c-19.7,0-36.2-16.5-36.2-36.2c0-19.7,16.5-36.2,36.2-36.2
		c19.7,0,36.2,16.5,36.2,36.2S396.2,352.1,375.7,352.1z"/>
	<path id="XMLID_39_" class="st8" d="M375.7,344.2c-15.8,0-28.4-12.6-28.4-28.4s12.6-28.4,28.4-28.4c15.8,0,28.4,12.6,28.4,28.4
		C404.1,331.6,391.5,344.2,375.7,344.2z"/>
	<path id="XMLID_40_" class="st9" d="M375.7,340.3c-13.4,0-23.6-11-23.6-23.6c0-13.4,11-23.6,23.6-23.6c13.4,0,23.6,11,23.6,23.6
		C400.1,329.3,389.1,340.3,375.7,340.3z"/>
	<circle id="XMLID_41_" class="st8" cx="375.7" cy="315.9" r="7.9"/>
	<path id="XMLID_42_" class="st10" d="M230,226.9h101.6l-36.2-50.4c-2.4-3.2-6.3-5.5-10.2-5.5H230V226.9z"/>
	<path id="XMLID_43_" class="st10" d="M222.1,170.9h-48c-4.7,0-7.9,1.6-11,5.5l-35.4,50.4h94.5V170.9z"/>
	<path id="XMLID_44_" class="st2" d="M434.8,234.7h-7.1c-8.7,0-12.6,7.1-7.9,14.2l4.7,8.7c3.9,7.9,15,14.2,23.6,14.2
		c2.4,0,3.9-0.8,5.5-1.6C450.6,252.8,443.5,242.6,434.8,234.7z"/>
	<path id="XMLID_45_" class="st11" d="M54.4,234.7h10.2c6.3,0,11.8,7.9,11.8,11.8H54.4V234.7z"/>
</g>
</svg>
